<mxfile host="app.diagrams.net" agent="Mozilla/5.0 (X11; Linux x86_64) AppleWebKit/537.36 (KHTML, like Gecko) Chrome/140.0.0.0 Safari/537.36" version="28.2.5">
  <diagram name="Page-1" id="gIB2PcYGDF00z7CizTmK">
    <mxGraphModel dx="1356" dy="770" grid="1" gridSize="10" guides="1" tooltips="1" connect="1" arrows="1" fold="1" page="1" pageScale="1" pageWidth="850" pageHeight="1100" math="0" shadow="0">
      <root>
        <mxCell id="0" />
        <mxCell id="1" parent="0" />
        <mxCell id="HinQC5C575GeXbxiz5a4-22" style="rounded=0;orthogonalLoop=1;jettySize=auto;html=1;exitX=0.5;exitY=1;exitDx=0;exitDy=0;entryX=0.5;entryY=0;entryDx=0;entryDy=0;" edge="1" parent="1" source="FaVO4pRgcLJsVCBSYs57-3" target="FaVO4pRgcLJsVCBSYs57-4">
          <mxGeometry relative="1" as="geometry" />
        </mxCell>
        <mxCell id="FaVO4pRgcLJsVCBSYs57-3" value="Config" style="rounded=1;whiteSpace=wrap;html=1;" parent="1" vertex="1">
          <mxGeometry x="270" y="30" width="120" height="60" as="geometry" />
        </mxCell>
        <mxCell id="HinQC5C575GeXbxiz5a4-3" style="rounded=0;orthogonalLoop=1;jettySize=auto;html=1;exitX=0.25;exitY=1;exitDx=0;exitDy=0;fontSize=14;labelBorderColor=none;" edge="1" parent="1" source="FaVO4pRgcLJsVCBSYs57-4" target="FaVO4pRgcLJsVCBSYs57-5">
          <mxGeometry relative="1" as="geometry" />
        </mxCell>
        <mxCell id="FaVO4pRgcLJsVCBSYs57-4" value="Location -&amp;gt; GeoLocation" style="rounded=1;whiteSpace=wrap;html=1;" parent="1" vertex="1">
          <mxGeometry x="270" y="120" width="120" height="60" as="geometry" />
        </mxCell>
        <mxCell id="HinQC5C575GeXbxiz5a4-20" style="rounded=0;orthogonalLoop=1;jettySize=auto;html=1;exitX=0.5;exitY=1;exitDx=0;exitDy=0;entryX=0.5;entryY=0;entryDx=0;entryDy=0;" edge="1" parent="1" source="FaVO4pRgcLJsVCBSYs57-5" target="HinQC5C575GeXbxiz5a4-18">
          <mxGeometry relative="1" as="geometry" />
        </mxCell>
        <mxCell id="FaVO4pRgcLJsVCBSYs57-5" value="GeoLocation returned for specified location" style="rounded=1;whiteSpace=wrap;html=1;" parent="1" vertex="1">
          <mxGeometry x="80" y="320" width="120" height="60" as="geometry" />
        </mxCell>
        <mxCell id="HinQC5C575GeXbxiz5a4-1" value="&lt;font style=&quot;font-size: 18px;&quot;&gt;Weather MCP Server&lt;/font&gt;" style="text;html=1;align=center;verticalAlign=middle;resizable=0;points=[];autosize=1;strokeColor=none;fillColor=none;" vertex="1" parent="1">
          <mxGeometry x="10" y="40" width="190" height="40" as="geometry" />
        </mxCell>
        <mxCell id="HinQC5C575GeXbxiz5a4-8" style="edgeStyle=orthogonalEdgeStyle;rounded=0;orthogonalLoop=1;jettySize=auto;html=1;exitX=0.5;exitY=1;exitDx=0;exitDy=0;entryX=0.5;entryY=0;entryDx=0;entryDy=0;" edge="1" parent="1" source="HinQC5C575GeXbxiz5a4-4" target="HinQC5C575GeXbxiz5a4-7">
          <mxGeometry relative="1" as="geometry" />
        </mxCell>
        <mxCell id="HinQC5C575GeXbxiz5a4-4" value="Bad GeoLocation" style="rounded=1;whiteSpace=wrap;html=1;" vertex="1" parent="1">
          <mxGeometry x="365" y="200" width="120" height="60" as="geometry" />
        </mxCell>
        <mxCell id="HinQC5C575GeXbxiz5a4-6" style="rounded=0;orthogonalLoop=1;jettySize=auto;html=1;exitX=0.5;exitY=1;exitDx=0;exitDy=0;fontSize=14;labelBorderColor=none;entryX=0;entryY=0.5;entryDx=0;entryDy=0;" edge="1" parent="1" source="FaVO4pRgcLJsVCBSYs57-4" target="HinQC5C575GeXbxiz5a4-4">
          <mxGeometry relative="1" as="geometry">
            <mxPoint x="333" y="350" as="sourcePoint" />
            <mxPoint x="300" y="410" as="targetPoint" />
          </mxGeometry>
        </mxCell>
        <mxCell id="HinQC5C575GeXbxiz5a4-17" style="edgeStyle=orthogonalEdgeStyle;rounded=0;orthogonalLoop=1;jettySize=auto;html=1;exitX=0.5;exitY=1;exitDx=0;exitDy=0;entryX=0.5;entryY=0;entryDx=0;entryDy=0;" edge="1" parent="1" source="HinQC5C575GeXbxiz5a4-7" target="HinQC5C575GeXbxiz5a4-9">
          <mxGeometry relative="1" as="geometry" />
        </mxCell>
        <mxCell id="HinQC5C575GeXbxiz5a4-7" value="Webb MCP server for Geolocation" style="rounded=1;whiteSpace=wrap;html=1;" vertex="1" parent="1">
          <mxGeometry x="360" y="290" width="120" height="60" as="geometry" />
        </mxCell>
        <mxCell id="HinQC5C575GeXbxiz5a4-12" style="rounded=0;orthogonalLoop=1;jettySize=auto;html=1;exitX=0;exitY=0.5;exitDx=0;exitDy=0;entryX=1;entryY=0.5;entryDx=0;entryDy=0;" edge="1" parent="1" source="HinQC5C575GeXbxiz5a4-9" target="HinQC5C575GeXbxiz5a4-11">
          <mxGeometry relative="1" as="geometry" />
        </mxCell>
        <mxCell id="HinQC5C575GeXbxiz5a4-13" style="rounded=0;orthogonalLoop=1;jettySize=auto;html=1;exitX=1;exitY=0.5;exitDx=0;exitDy=0;" edge="1" parent="1" source="HinQC5C575GeXbxiz5a4-9" target="HinQC5C575GeXbxiz5a4-10">
          <mxGeometry relative="1" as="geometry" />
        </mxCell>
        <mxCell id="HinQC5C575GeXbxiz5a4-9" value="Worked" style="rounded=1;whiteSpace=wrap;html=1;" vertex="1" parent="1">
          <mxGeometry x="360" y="365" width="120" height="60" as="geometry" />
        </mxCell>
        <mxCell id="HinQC5C575GeXbxiz5a4-10" value="No" style="rounded=1;whiteSpace=wrap;html=1;" vertex="1" parent="1">
          <mxGeometry x="530" y="380" width="60" height="30" as="geometry" />
        </mxCell>
        <mxCell id="HinQC5C575GeXbxiz5a4-11" value="Yes" style="rounded=1;whiteSpace=wrap;html=1;" vertex="1" parent="1">
          <mxGeometry x="250" y="380" width="60" height="30" as="geometry" />
        </mxCell>
        <mxCell id="HinQC5C575GeXbxiz5a4-16" style="edgeStyle=orthogonalEdgeStyle;rounded=0;orthogonalLoop=1;jettySize=auto;html=1;exitX=0;exitY=0.5;exitDx=0;exitDy=0;entryX=1;entryY=0.5;entryDx=0;entryDy=0;" edge="1" parent="1" source="HinQC5C575GeXbxiz5a4-14" target="HinQC5C575GeXbxiz5a4-7">
          <mxGeometry relative="1" as="geometry" />
        </mxCell>
        <mxCell id="HinQC5C575GeXbxiz5a4-14" value="address zoom out" style="rounded=1;whiteSpace=wrap;html=1;" vertex="1" parent="1">
          <mxGeometry x="510" y="290" width="120" height="60" as="geometry" />
        </mxCell>
        <mxCell id="HinQC5C575GeXbxiz5a4-15" style="edgeStyle=orthogonalEdgeStyle;rounded=0;orthogonalLoop=1;jettySize=auto;html=1;exitX=0.5;exitY=0;exitDx=0;exitDy=0;entryX=0.421;entryY=1.061;entryDx=0;entryDy=0;entryPerimeter=0;" edge="1" parent="1" source="HinQC5C575GeXbxiz5a4-10" target="HinQC5C575GeXbxiz5a4-14">
          <mxGeometry relative="1" as="geometry" />
        </mxCell>
        <mxCell id="HinQC5C575GeXbxiz5a4-18" value="Find closest station_id" style="rounded=1;whiteSpace=wrap;html=1;" vertex="1" parent="1">
          <mxGeometry x="120" y="470" width="120" height="60" as="geometry" />
        </mxCell>
        <mxCell id="HinQC5C575GeXbxiz5a4-19" value="Find weather for station_id&amp;nbsp;" style="rounded=1;whiteSpace=wrap;html=1;" vertex="1" parent="1">
          <mxGeometry x="120" y="580" width="120" height="60" as="geometry" />
        </mxCell>
        <mxCell id="HinQC5C575GeXbxiz5a4-21" style="rounded=0;orthogonalLoop=1;jettySize=auto;html=1;exitX=0.5;exitY=1;exitDx=0;exitDy=0;entryX=0.678;entryY=-0.029;entryDx=0;entryDy=0;entryPerimeter=0;" edge="1" parent="1" source="HinQC5C575GeXbxiz5a4-11" target="HinQC5C575GeXbxiz5a4-18">
          <mxGeometry relative="1" as="geometry" />
        </mxCell>
      </root>
    </mxGraphModel>
  </diagram>
</mxfile>
